<svg width="1024" height="1024" viewBox="0 0 1024 1024" xmlns="http://www.w3.org/2000/svg">
  <defs>
    <linearGradient id="bg" x1="0" y1="0" x2="1024" y2="1024" gradientUnits="userSpaceOnUse">
      <stop offset="0" stop-color="#4F46E5"/>
      <stop offset="0.55" stop-color="#7C3AED"/>
      <stop offset="1" stop-color="#06B6D4"/>
    </linearGradient>
  </defs>

  <rect x="64" y="64" width="896" height="896" rx="205" fill="url(#bg)"/>

  <g fill="#FFFFFF" opacity="0.92">
    <rect x="392" y="180" width="30" height="90" rx="15"/>
    <rect x="446" y="150" width="30" height="150" rx="15"/>
    <rect x="500" y="120" width="30" height="210" rx="15"/>
    <rect x="554" y="150" width="30" height="150" rx="15"/>
    <rect x="608" y="180" width="30" height="90" rx="15"/>
  </g>

  <path d="M232 398 h560 a86 86 0 0 1 86 86 v220 a86 86 0 0 1 -86 86 h-372 l-92 96 v-96 h-96 a86 86 0 0 1 -86 -86 v-220 a86 86 0 0 1 86 -86 z" fill="#FFFFFF"/>
  <rect x="300" y="506" width="424" height="66" rx="33" fill="#4F46E5"/>
  <rect x="300" y="606" width="300" height="66" rx="33" fill="#06B6D4"/>
</svg>
